<svg data-v-423bf9ae="" xmlns="http://www.w3.org/2000/svg" viewBox="0 0 251.21324329459898 60" class="font"><!----><!----><defs data-v-423bf9ae=""><linearGradient data-v-423bf9ae="" gradientTransform="rotate(25)" id="fc6f5e66-2ada-4752-81cc-57f8908204e4" x1="0%" y1="0%" x2="100%" y2="0%"><stop data-v-423bf9ae="" offset="0%" style="stop-color: rgb(0, 125, 232); stop-opacity: 1;"></stop><stop data-v-423bf9ae="" offset="100%" style="stop-color: rgb(161, 195, 219); stop-opacity: 1;"></stop></linearGradient></defs><g data-v-423bf9ae="" id="d51d2c97-9467-4523-abec-a3118ac9271f" fill="url(#fc6f5e66-2ada-4752-81cc-57f8908204e4)" transform="matrix(4.521476859851707,0,0,4.521476859851707,-5.425770206706602,-10.896759381905504)"><path d="M7.48 13.05L1.20 13.05L1.20 3.35L7.13 3.35L7.13 4.51L2.56 4.51L2.56 7.39L6.62 7.39L6.62 8.53L2.56 8.53L2.56 11.89L7.48 11.89L7.48 13.05ZM11.58 12.11L11.58 12.11L11.58 12.11Q12.04 12.11 12.40 12.09L12.40 12.09L12.40 12.09Q12.75 12.07 12.99 12.01L12.99 12.01L12.99 9.84L12.99 9.84Q12.85 9.77 12.54 9.72L12.54 9.72L12.54 9.72Q12.22 9.67 11.77 9.67L11.77 9.67L11.77 9.67Q11.48 9.67 11.15 9.72L11.15 9.72L11.15 9.72Q10.82 9.76 10.55 9.89L10.55 9.89L10.55 9.89Q10.28 10.02 10.09 10.25L10.09 10.25L10.09 10.25Q9.91 10.49 9.91 10.86L9.91 10.86L9.91 10.86Q9.91 11.56 10.36 11.84L10.36 11.84L10.36 11.84Q10.81 12.11 11.58 12.11ZM11.47 5.59L11.47 5.59L11.47 5.59Q12.25 5.59 12.79 5.79L12.79 5.79L12.79 5.79Q13.33 5.99 13.66 6.36L13.66 6.36L13.66 6.36Q13.99 6.73 14.13 7.25L14.13 7.25L14.13 7.25Q14.27 7.76 14.27 8.37L14.27 8.37L14.27 12.92L14.27 12.92Q14.10 12.95 13.80 13.00L13.80 13.00L13.80 13.00Q13.50 13.05 13.12 13.09L13.12 13.09L13.12 13.09Q12.74 13.13 12.30 13.17L12.30 13.17L12.30 13.17Q11.86 13.20 11.42 13.20L11.42 13.20L11.42 13.20Q10.81 13.20 10.29 13.08L10.29 13.08L10.29 13.08Q9.77 12.95 9.39 12.68L9.39 12.68L9.39 12.68Q9.02 12.40 8.81 11.96L8.81 11.96L8.81 11.96Q8.60 11.51 8.60 10.88L8.60 10.88L8.60 10.88Q8.60 10.28 8.84 9.84L8.84 9.84L8.84 9.84Q9.09 9.41 9.51 9.14L9.51 9.14L9.51 9.14Q9.93 8.88 10.49 8.75L10.49 8.75L10.49 8.75Q11.05 8.62 11.66 8.62L11.66 8.62L11.66 8.62Q11.86 8.62 12.07 8.64L12.07 8.64L12.07 8.64Q12.28 8.67 12.47 8.70L12.47 8.70L12.47 8.70Q12.66 8.74 12.80 8.76L12.80 8.76L12.80 8.76Q12.94 8.79 12.99 8.81L12.99 8.81L12.99 8.44L12.99 8.44Q12.99 8.12 12.92 7.80L12.92 7.80L12.92 7.80Q12.85 7.49 12.67 7.25L12.67 7.25L12.67 7.25Q12.49 7 12.17 6.85L12.17 6.85L12.17 6.85Q11.86 6.71 11.35 6.71L11.35 6.71L11.35 6.71Q10.71 6.71 10.23 6.80L10.23 6.80L10.23 6.80Q9.74 6.89 9.51 6.99L9.51 6.99L9.35 5.91L9.35 5.91Q9.60 5.80 10.19 5.69L10.19 5.69L10.19 5.69Q10.78 5.59 11.47 5.59ZM16.42 13.05L16.42 5.98L16.42 5.98Q16.87 5.87 17.61 5.74L17.61 5.74L17.61 5.74Q18.35 5.61 19.32 5.61L19.32 5.61L19.32 5.61Q20.19 5.61 20.76 5.86L20.76 5.86L20.76 5.86Q21.34 6.10 21.68 6.54L21.68 6.54L21.68 6.54Q22.02 6.99 22.16 7.60L22.16 7.60L22.16 7.60Q22.30 8.22 22.30 8.96L22.30 8.96L22.30 13.05L21 13.05L21 9.24L21 9.24Q21 8.57 20.91 8.09L20.91 8.09L20.91 8.09Q20.82 7.62 20.61 7.32L20.61 7.32L20.61 7.32Q20.40 7.03 20.05 6.89L20.05 6.89L20.05 6.89Q19.70 6.76 19.18 6.76L19.18 6.76L19.18 6.76Q18.97 6.76 18.75 6.78L18.75 6.78L18.75 6.78Q18.52 6.79 18.32 6.81L18.32 6.81L18.32 6.81Q18.12 6.83 17.95 6.86L17.95 6.86L17.95 6.86Q17.79 6.89 17.72 6.90L17.72 6.90L17.72 13.05L16.42 13.05ZM27.15 5.61L27.15 5.61L27.15 5.61Q27.31 5.61 27.53 5.63L27.53 5.63L27.53 5.63Q27.75 5.66 27.96 5.69L27.96 5.69L27.96 5.69Q28.17 5.73 28.34 5.76L28.34 5.76L28.34 5.76Q28.52 5.80 28.60 5.82L28.60 5.82L28.38 6.96L28.38 6.96Q28.22 6.90 27.87 6.83L27.87 6.83L27.87 6.83Q27.51 6.75 26.95 6.75L26.95 6.75L26.95 6.75Q26.59 6.75 26.23 6.83L26.23 6.83L26.23 6.83Q25.87 6.90 25.76 6.93L25.76 6.93L25.76 13.05L24.46 13.05L24.46 6.08L24.46 6.08Q24.92 5.91 25.61 5.76L25.61 5.76L25.61 5.76Q26.29 5.61 27.15 5.61ZM32.33 12.11L32.33 12.11L32.33 12.11Q32.79 12.11 33.15 12.09L33.15 12.09L33.15 12.09Q33.50 12.07 33.74 12.01L33.74 12.01L33.74 9.84L33.74 9.84Q33.60 9.77 33.29 9.72L33.29 9.72L33.29 9.72Q32.97 9.67 32.52 9.67L32.52 9.67L32.52 9.67Q32.23 9.67 31.90 9.72L31.90 9.72L31.90 9.72Q31.57 9.76 31.30 9.89L31.30 9.89L31.30 9.89Q31.02 10.02 30.84 10.25L30.84 10.25L30.84 10.25Q30.66 10.49 30.66 10.86L30.66 10.86L30.66 10.86Q30.66 11.56 31.11 11.84L31.11 11.84L31.11 11.84Q31.56 12.11 32.33 12.11ZM32.21 5.59L32.21 5.59L32.21 5.59Q33.00 5.59 33.54 5.79L33.54 5.79L33.54 5.79Q34.08 5.99 34.41 6.36L34.41 6.36L34.41 6.36Q34.73 6.73 34.87 7.25L34.87 7.25L34.87 7.25Q35.01 7.76 35.01 8.37L35.01 8.37L35.01 12.92L35.01 12.92Q34.85 12.95 34.55 13.00L34.55 13.00L34.55 13.00Q34.24 13.05 33.87 13.09L33.87 13.09L33.87 13.09Q33.49 13.13 33.05 13.17L33.05 13.17L33.05 13.17Q32.61 13.20 32.17 13.20L32.17 13.20L32.17 13.20Q31.56 13.20 31.04 13.08L31.04 13.08L31.04 13.08Q30.52 12.95 30.14 12.68L30.14 12.68L30.14 12.68Q29.76 12.40 29.55 11.96L29.55 11.96L29.55 11.96Q29.34 11.51 29.34 10.88L29.34 10.88L29.34 10.88Q29.34 10.28 29.59 9.84L29.59 9.84L29.59 9.84Q29.83 9.41 30.25 9.14L30.25 9.14L30.25 9.14Q30.67 8.88 31.23 8.75L31.23 8.75L31.23 8.75Q31.79 8.62 32.41 8.62L32.41 8.62L32.41 8.62Q32.61 8.62 32.82 8.64L32.82 8.64L32.82 8.64Q33.03 8.67 33.22 8.70L33.22 8.70L33.22 8.70Q33.40 8.74 33.54 8.76L33.54 8.76L33.54 8.76Q33.68 8.79 33.74 8.81L33.74 8.81L33.74 8.44L33.74 8.44Q33.74 8.12 33.67 7.80L33.67 7.80L33.67 7.80Q33.60 7.49 33.42 7.25L33.42 7.25L33.42 7.25Q33.24 7 32.92 6.85L32.92 6.85L32.92 6.85Q32.61 6.71 32.10 6.71L32.10 6.71L32.10 6.71Q31.46 6.71 30.98 6.80L30.98 6.80L30.98 6.80Q30.49 6.89 30.25 6.99L30.25 6.99L30.10 5.91L30.10 5.91Q30.35 5.80 30.94 5.69L30.94 5.69L30.94 5.69Q31.53 5.59 32.21 5.59ZM38.47 5.77L38.47 13.05L37.17 13.05L37.17 5.77L38.47 5.77ZM37.81 4.45L37.81 4.45L37.81 4.45Q37.46 4.45 37.22 4.22L37.22 4.22L37.22 4.22Q36.97 3.99 36.97 3.60L36.97 3.60L36.97 3.60Q36.97 3.21 37.22 2.97L37.22 2.97L37.22 2.97Q37.46 2.74 37.81 2.74L37.81 2.74L37.81 2.74Q38.16 2.74 38.41 2.97L38.41 2.97L38.41 2.97Q38.65 3.21 38.65 3.60L38.65 3.60L38.65 3.60Q38.65 3.99 38.41 4.22L38.41 4.22L38.41 4.22Q38.16 4.45 37.81 4.45ZM45.28 12.63L45.28 12.32L45.28 12.32Q45.11 12.43 44.63 12.61L44.63 12.61L44.63 12.61Q44.14 12.78 43.50 12.78L43.50 12.78L43.50 12.78Q42.84 12.78 42.26 12.57L42.26 12.57L42.26 12.57Q41.68 12.36 41.24 11.92L41.24 11.92L41.24 11.92Q40.81 11.48 40.56 10.82L40.56 10.82L40.56 10.82Q40.31 10.16 40.31 9.25L40.31 9.25L40.31 9.25Q40.31 8.46 40.54 7.79L40.54 7.79L40.54 7.79Q40.78 7.13 41.24 6.64L41.24 6.64L41.24 6.64Q41.69 6.16 42.35 5.89L42.35 5.89L42.35 5.89Q43.01 5.61 43.83 5.61L43.83 5.61L43.83 5.61Q44.74 5.61 45.42 5.75L45.42 5.75L45.42 5.75Q46.10 5.88 46.56 5.99L46.56 5.99L46.56 12.49L46.56 12.49Q46.56 14.17 45.70 14.92L45.70 14.92L45.70 14.92Q44.83 15.68 43.06 15.68L43.06 15.68L43.06 15.68Q42.38 15.68 41.77 15.57L41.77 15.57L41.77 15.57Q41.16 15.46 40.71 15.30L40.71 15.30L40.95 14.17L40.95 14.17Q41.34 14.32 41.91 14.44L41.91 14.44L41.91 14.44Q42.48 14.56 43.09 14.56L43.09 14.56L43.09 14.56Q44.25 14.56 44.77 14.10L44.77 14.10L44.77 14.10Q45.28 13.64 45.28 12.63L45.28 12.63ZM45.26 11.17L45.26 6.92L45.26 6.92Q45.07 6.86 44.74 6.81L44.74 6.81L44.74 6.81Q44.41 6.76 43.85 6.76L43.85 6.76L43.85 6.76Q42.80 6.76 42.23 7.45L42.23 7.45L42.23 7.45Q41.66 8.13 41.66 9.27L41.66 9.27L41.66 9.27Q41.66 9.90 41.82 10.35L41.82 10.35L41.82 10.35Q41.99 10.79 42.26 11.09L42.26 11.09L42.26 11.09Q42.53 11.38 42.89 11.52L42.89 11.52L42.89 11.52Q43.25 11.66 43.62 11.66L43.62 11.66L43.62 11.66Q44.14 11.66 44.58 11.52L44.58 11.52L44.58 11.52Q45.01 11.37 45.26 11.17L45.26 11.17ZM48.69 2.41L50.05 2.41L50.05 3.11L50.05 3.11Q50.05 3.79 49.97 4.54L49.97 4.54L49.97 4.54Q49.88 5.29 49.76 6.03L49.76 6.03L48.99 6.03L48.99 6.03Q48.86 5.29 48.78 4.54L48.78 4.54L48.78 4.54Q48.69 3.79 48.69 3.09L48.69 3.09L48.69 2.41ZM53.87 12.11L53.87 12.11L53.87 12.11Q54.67 12.11 55.05 11.90L55.05 11.90L55.05 11.90Q55.44 11.69 55.44 11.23L55.44 11.23L55.44 11.23Q55.44 10.75 55.06 10.47L55.06 10.47L55.06 10.47Q54.68 10.19 53.82 9.84L53.82 9.84L53.82 9.84Q53.40 9.67 53.01 9.50L53.01 9.50L53.01 9.50Q52.63 9.32 52.35 9.09L52.35 9.09L52.35 9.09Q52.07 8.85 51.90 8.51L51.90 8.51L51.90 8.51Q51.73 8.18 51.73 7.69L51.73 7.69L51.73 7.69Q51.73 6.72 52.44 6.15L52.44 6.15L52.44 6.15Q53.16 5.59 54.39 5.59L54.39 5.59L54.39 5.59Q54.70 5.59 55.01 5.62L55.01 5.62L55.01 5.62Q55.31 5.66 55.58 5.71L55.58 5.71L55.58 5.71Q55.85 5.75 56.05 5.81L56.05 5.81L56.05 5.81Q56.25 5.87 56.36 5.91L56.36 5.91L56.13 7.03L56.13 7.03Q55.92 6.92 55.47 6.80L55.47 6.80L55.47 6.80Q55.02 6.68 54.39 6.68L54.39 6.68L54.39 6.68Q53.84 6.68 53.44 6.89L53.44 6.89L53.44 6.89Q53.03 7.11 53.03 7.57L53.03 7.57L53.03 7.57Q53.03 7.81 53.12 7.99L53.12 7.99L53.12 7.99Q53.21 8.18 53.40 8.32L53.40 8.32L53.40 8.32Q53.59 8.47 53.87 8.60L53.87 8.60L53.87 8.60Q54.15 8.72 54.54 8.86L54.54 8.86L54.54 8.86Q55.06 9.06 55.47 9.25L55.47 9.25L55.47 9.25Q55.87 9.44 56.16 9.69L56.16 9.69L56.16 9.69Q56.45 9.94 56.60 10.30L56.60 10.30L56.60 10.30Q56.76 10.65 56.76 11.17L56.76 11.17L56.76 11.17Q56.76 12.18 56.01 12.70L56.01 12.70L56.01 12.70Q55.26 13.22 53.87 13.22L53.87 13.22L53.87 13.22Q52.91 13.22 52.36 13.05L52.36 13.05L52.36 13.05Q51.81 12.89 51.62 12.81L51.62 12.81L51.86 11.69L51.86 11.69Q52.08 11.77 52.57 11.94L52.57 11.94L52.57 11.94Q53.06 12.11 53.87 12.11Z"></path></g><!----><!----></svg>