<svg data-v-423bf9ae="" xmlns="http://www.w3.org/2000/svg" viewBox="0 0 336.9400820071987 60" class="font"><!----><!----><defs data-v-423bf9ae=""><linearGradient data-v-423bf9ae="" gradientTransform="rotate(25)" id="4aff5503-6aa1-4c18-8f5c-84a6d6c58cb5" x1="0%" y1="0%" x2="100%" y2="0%"><stop data-v-423bf9ae="" offset="0%" style="stop-color: rgb(0, 102, 120); stop-opacity: 1;"></stop><stop data-v-423bf9ae="" offset="100%" style="stop-color: rgb(79, 168, 255); stop-opacity: 1;"></stop></linearGradient></defs><g data-v-423bf9ae="" id="04e8548f-2b85-467c-a4b4-0e2ba9e7609a" fill="url(#4aff5503-6aa1-4c18-8f5c-84a6d6c58cb5)" transform="matrix(5.529953722625812,0,0,5.529953722625812,5.253463008909961,-18.13824781358084)"><path d="M6.55 5.17L6.55 5.17L6.55 5.17Q5.05 5.96 3.84 7.29L3.84 7.29L3.84 7.29Q3.99 7.78 4.28 8.34L4.28 8.34L4.28 8.34Q4.58 8.89 4.90 9.52L4.90 9.52L4.90 9.52Q5.75 11.12 6.12 12.25L6.12 12.25L4.94 14.13L4.94 14.13Q2.32 13.44 0.29 12.21L0.29 12.21L0.29 12.21Q-0.34 11.82-0.95 11.40L-0.95 11.40L-0.01 9.69L-0.01 9.69Q2.11 11.16 3.88 11.84L3.88 11.84L3.88 11.84Q3.54 11.02 2.87 9.85L2.87 9.85L2.87 9.85Q2.20 8.68 1.90 8.09L1.90 8.09L1.90 8.09Q1.60 7.49 1.43 6.90L1.43 6.90L1.43 6.90Q2.30 5.82 3.64 4.77L3.64 4.77L3.64 4.77Q4.87 3.81 5.99 3.28L5.99 3.28L8.69 5.08L8.69 5.08Q8.43 6.27 7.48 8.04L7.48 8.04L7.48 8.04Q7.24 8.48 7.06 8.75L7.06 8.75L5.38 7.78L5.38 7.78Q5.94 6.89 6.55 5.17ZM14.29 12.57L13.62 11.80L13.62 11.80Q12.28 13.36 10.08 13.76L10.08 13.76L8.09 12.10L8.09 12.10Q8.09 10.75 8.62 9.44L8.62 9.44L8.62 9.44Q9.30 7.78 10.84 6.76L10.84 6.76L10.84 6.76Q11.90 6.05 13.15 5.88L13.15 5.88L15.37 7.78L15.37 7.78Q15.13 9.30 14.56 10.42L14.56 10.42L14.56 10.42Q15.57 10.36 16.84 10.14L16.84 10.14L17.15 11.55L17.15 11.55Q15.33 12.31 14.29 12.57L14.29 12.57ZM9.97 11.86L9.97 11.86L9.97 11.86Q11.56 11.49 12.63 9.88L12.63 9.88L12.63 9.88Q13.08 9.20 13.27 8.57L13.27 8.57L13.27 8.57Q13.47 7.94 13.48 7.56L13.48 7.56L13.48 7.56Q12.35 7.71 11.33 8.76L11.33 8.76L11.33 8.76Q10.05 10.07 9.97 11.86ZM21.43 13.71L20.20 12.33L20.20 12.33Q19.32 13.17 17.93 13.76L17.93 13.76L16.07 12.15L16.07 12.15Q16.27 10.57 17.05 9.03L17.05 9.03L17.05 9.03Q17.84 7.49 19.07 5.82L19.07 5.82L20.51 6.93L20.51 6.93Q18.55 9.58 18.03 11.75L18.03 11.75L18.03 11.75Q18.05 11.75 18.29 11.67L18.29 11.67L18.29 11.67Q18.54 11.59 18.93 11.37L18.93 11.37L18.93 11.37Q19.92 10.81 20.76 9.76L20.76 9.76L20.76 9.76Q21.74 7.77 22.64 6.51L22.64 6.51L24.14 7.67L24.14 7.67Q22.82 9.60 21.99 11.49L21.99 11.49L21.94 11.52L21.94 11.52Q22.83 11.28 23.89 10.79L23.89 10.79L23.89 10.79Q24.95 10.30 25.24 10.14L25.24 10.14L25.54 11.55L25.54 11.55Q24.67 12.18 22.81 13.10L22.81 13.10L22.81 13.10Q22.05 13.48 21.43 13.71L21.43 13.71ZM25.70 7.11L25.70 7.11L25.70 7.11Q26.38 6.20 27.38 5.22L27.38 5.22L28.69 6.23L28.69 6.23Q28.53 6.87 28.42 7.17L28.42 7.17L28.42 7.17Q30.23 6.97 31.02 6.78L31.02 6.78L31.02 6.78Q31.82 6.58 32.41 6.43L32.41 6.43L32.80 8.09L32.80 8.09Q32.23 8.26 31.60 8.39L31.60 8.39L31.60 8.39Q30.63 9.91 29.99 11.62L29.99 11.62L29.99 11.62Q32.31 10.82 33.42 10.14L33.42 10.14L33.73 11.55L33.73 11.55Q32.44 12.39 30.35 13.27L30.35 13.27L30.35 13.27Q29.68 13.55 29.06 13.76L29.06 13.76L27.58 12.28L27.58 12.28Q28.49 10.19 29.53 8.68L29.53 8.68L29.53 8.68Q28.55 8.76 27.79 8.79L27.79 8.79L27.79 8.79Q27.57 9.21 26.59 10.89L26.59 10.89L25.55 11.55L24.22 10.77L24.22 10.77Q25.38 9.51 25.79 9.00L25.79 9.00L25.79 9.00Q26.19 8.50 26.49 8.13L26.49 8.13L26.49 8.13Q26.08 7.69 25.70 7.11ZM41.82 5.46L41.82 5.46L41.82 5.46Q41.50 5.12 41.50 4.65L41.50 4.65L41.50 4.65Q41.50 4.17 41.82 3.84L41.82 3.84L41.82 3.84Q42.15 3.51 42.63 3.51L42.63 3.51L42.63 3.51Q43.11 3.51 43.43 3.84L43.43 3.84L43.43 3.84Q43.76 4.17 43.76 4.65L43.76 4.65L43.76 4.65Q43.76 5.12 43.43 5.45L43.43 5.45L43.43 5.45Q43.11 5.78 42.63 5.78L42.63 5.78L42.63 5.78Q42.15 5.78 41.82 5.46ZM39.70 11.62L39.70 11.62L39.70 11.62Q41.13 11.19 43.13 10.14L43.13 10.14L43.43 11.55L43.43 11.55Q42.07 12.43 40.15 13.27L40.15 13.27L40.15 13.27Q39.51 13.55 38.89 13.76L38.89 13.76L37.28 12.28L37.28 12.28Q37.97 10.40 39.75 7.60L39.75 7.60L39.75 7.60Q40.28 6.76 40.78 6.13L40.78 6.13L42.17 7.15L42.17 7.15Q41.15 8.55 40.18 10.53L40.18 10.53L40.18 10.53Q39.90 11.12 39.70 11.62ZM45.79 8.51L45.79 8.51L45.79 8.51Q47.19 7.41 48.69 6.61L48.69 6.61L50.39 7.94L50.39 7.94Q49.92 9.93 48.76 11.52L48.76 11.52L48.76 11.52Q50.16 11.05 51.94 10.14L51.94 10.14L52.23 11.55L52.23 11.55Q51.66 11.93 50.48 12.52L50.48 12.52L50.48 12.52Q48.47 13.51 47.70 13.76L47.70 13.76L45.96 12.53L45.96 12.53Q46.80 11.52 47.37 10.54L47.37 10.54L47.37 10.54Q47.94 9.55 48.10 8.81L48.10 8.81L48.10 8.81Q46.31 9.65 44.69 10.77L44.69 10.77L44.69 10.77Q44.04 12.31 43.60 13.76L43.60 13.76L41.93 12.68L41.93 12.68Q42.41 11.07 43.41 9.06L43.41 9.06L43.41 9.06Q44.32 7.25 45.32 6.01L45.32 6.01L46.73 7.03L46.73 7.03Q46.24 7.69 45.79 8.51ZM59.67 10.14L59.98 11.55L59.98 11.55Q58.07 12.82 56.07 13.76L56.07 13.76L54.32 12.53L54.32 12.53Q53.89 11.30 53.75 10.15L53.75 10.15L53.75 10.15Q53.03 11.77 52.33 13.76L52.33 13.76L50.67 12.68L50.67 12.68Q51.88 9.41 54.01 5.66L54.01 5.66L54.01 5.66Q54.68 4.48 55.38 3.39L55.38 3.39L56.83 4.47L56.83 4.47Q55.41 6.55 54.18 9.17L54.18 9.17L54.18 9.17Q56.06 7.42 58.07 5.98L58.07 5.98L59.50 7.31L59.50 7.31Q56.92 8.95 55.52 9.95L55.52 9.95L55.52 9.95Q55.76 10.63 56.24 11.59L56.24 11.59L56.24 11.59Q58.02 10.99 59.67 10.14L59.67 10.14Z"></path></g><!----><!----></svg>